<svg width="400" height="300" viewBox="0 0 400 300" xmlns="http://www.w3.org/2000/svg">
  <defs>
    <linearGradient id="glassGrad" x1="0%" y1="0%" x2="100%" y2="100%">
      <stop offset="0%" style="stop-color:#f8f9fa;stop-opacity:0.9" />
      <stop offset="100%" style="stop-color:#e9ecef;stop-opacity:0.7" />
    </linearGradient>
    <linearGradient id="drinkGrad" x1="0%" y1="0%" x2="100%" y2="100%">
      <stop offset="0%" style="stop-color:#ff6b6b;stop-opacity:0.8" />
      <stop offset="100%" style="stop-color:#ee5a52;stop-opacity:0.9" />
    </linearGradient>
    <linearGradient id="drink2Grad" x1="0%" y1="0%" x2="100%" y2="100%">
      <stop offset="0%" style="stop-color:#4ecdc4;stop-opacity:0.8" />
      <stop offset="100%" style="stop-color:#44a08d;stop-opacity:0.9" />
    </linearGradient>
    <linearGradient id="drink3Grad" x1="0%" y1="0%" x2="100%" y2="100%">
      <stop offset="0%" style="stop-color:#ffe66d;stop-opacity:0.8" />
      <stop offset="100%" style="stop-color:#f7dc6f;stop-opacity:0.9" />
    </linearGradient>
    <linearGradient id="lemonGrad" x1="0%" y1="0%" x2="100%" y2="100%">
      <stop offset="0%" style="stop-color:#ffeaa7;stop-opacity:1" />
      <stop offset="100%" style="stop-color:#fdcb6e;stop-opacity:1" />
    </linearGradient>
    <linearGradient id="mintGrad" x1="0%" y1="0%" x2="100%" y2="100%">
      <stop offset="0%" style="stop-color:#00b894;stop-opacity:1" />
      <stop offset="100%" style="stop-color:#00a085;stop-opacity:1" />
    </linearGradient>
  </defs>
  
  <!-- Background -->
  <rect width="400" height="300" fill="#fefefe"/>
  
  <!-- Main cocktail glass (Martini) -->
  <g>
    <!-- Glass stem -->
    <rect x="190" y="180" width="20" height="60" fill="#dee2e6" rx="2"/>
    <!-- Glass base -->
    <ellipse cx="200" cy="250" rx="25" ry="8" fill="#ced4da"/>
    <!-- Glass bowl -->
    <path d="M170 180 Q200 140 230 180 L220 160 Q200 120 180 160 Z" fill="url(#glassGrad)" stroke="#ced4da" stroke-width="1"/>
    <!-- Drink -->
    <path d="M175 175 Q200 140 225 175 L220 160 Q200 125 180 160 Z" fill="url(#drinkGrad)"/>
    <!-- Olive garnish -->
    <ellipse cx="200" cy="165" rx="3" ry="4" fill="#556B2F"/>
    <ellipse cx="195" cy="168" rx="2" ry="3" fill="#556B2F"/>
  </g>
  
  <!-- Second cocktail glass (Mojito) -->
  <g>
    <!-- Glass stem -->
    <rect x="270" y="200" width="16" height="40" fill="#dee2e6" rx="2"/>
    <!-- Glass base -->
    <ellipse cx="278" cy="250" rx="20" ry="6" fill="#ced4da"/>
    <!-- Glass bowl -->
    <path d="M258 200 Q278 170 298 200 L290 185 Q278 155 266 185 Z" fill="url(#glassGrad)" stroke="#ced4da" stroke-width="1"/>
    <!-- Drink -->
    <path d="M262 195 Q278 170 294 195 L290 185 Q278 160 266 185 Z" fill="url(#drink2Grad)"/>
    <!-- Mint leaves -->
    <ellipse cx="278" cy="185" rx="2" ry="6" fill="url(#mintGrad)" transform="rotate(45 278 185)"/>
    <ellipse cx="275" cy="188" rx="1.5" ry="5" fill="url(#mintGrad)" transform="rotate(-30 275 188)"/>
    <ellipse cx="281" cy="188" rx="1.5" ry="5" fill="url(#mintGrad)" transform="rotate(60 281 188)"/>
    <!-- Lime slice -->
    <ellipse cx="285" cy="190" rx="4" ry="2" fill="url(#lemonGrad)"/>
  </g>
  
  <!-- Third cocktail glass (Lemon drop) -->
  <g>
    <!-- Glass stem -->
    <rect x="110" y="210" width="18" height="30" fill="#dee2e6" rx="2"/>
    <!-- Glass base -->
    <ellipse cx="119" cy="250" rx="22" ry="7" fill="#ced4da"/>
    <!-- Glass bowl -->
    <path d="M97 210 Q119 185 141 210 L135 195 Q119 170 103 195 Z" fill="url(#glassGrad)" stroke="#ced4da" stroke-width="1"/>
    <!-- Drink -->
    <path d="M100 205 Q119 185 138 205 L135 195 Q119 175 103 195 Z" fill="url(#drink3Grad)"/>
    <!-- Lemon garnish -->
    <ellipse cx="119" cy="195" rx="3" ry="2" fill="url(#lemonGrad)"/>
    <ellipse cx="115" cy="198" rx="2" ry="1.5" fill="url(#lemonGrad)"/>
    <ellipse cx="123" cy="198" rx="2" ry="1.5" fill="url(#lemonGrad)"/>
  </g>
  
  <!-- Decorative elements -->
  <circle cx="80" cy="80" r="12" fill="#A4B5A0" opacity="0.3"/>
  <circle cx="320" cy="120" r="8" fill="#8FA688" opacity="0.3"/>
  <circle cx="350" cy="180" r="15" fill="#656839" opacity="0.2"/>
  
  <!-- Ice cubes -->
  <g fill="#f8f9fa" opacity="0.8">
    <rect x="175" y="165" width="4" height="4" rx="1" transform="rotate(45 177 167)"/>
    <rect x="185" y="170" width="3" height="3" rx="1" transform="rotate(-30 186.5 171.5)"/>
    <rect x="195" y="168" width="4" height="4" rx="1" transform="rotate(15 197 170)"/>
  </g>
</svg>