<svg width="400" height="300" viewBox="0 0 400 300" xmlns="http://www.w3.org/2000/svg">
  <defs>
    <linearGradient id="cannoliGrad" x1="0%" y1="0%" x2="100%" y2="100%">
      <stop offset="0%" style="stop-color:#F5DEB3;stop-opacity:1" />
      <stop offset="100%" style="stop-color:#DEB887;stop-opacity:1" />
    </linearGradient>
    <linearGradient id="fillingGrad" x1="0%" y1="0%" x2="100%" y2="100%">
      <stop offset="0%" style="stop-color:#FFF8DC;stop-opacity:1" />
      <stop offset="100%" style="stop-color:#F0E68C;stop-opacity:1" />
    </linearGradient>
    <linearGradient id="chocolateGrad" x1="0%" y1="0%" x2="100%" y2="100%">
      <stop offset="0%" style="stop-color:#8B4513;stop-opacity:1" />
      <stop offset="100%" style="stop-color:#654321;stop-opacity:1" />
    </linearGradient>
    <linearGradient id="fruitGrad" x1="0%" y1="0%" x2="100%" y2="100%">
      <stop offset="0%" style="stop-color:#FF6347;stop-opacity:1" />
      <stop offset="100%" style="stop-color:#DC143C;stop-opacity:1" />
    </linearGradient>
    <linearGradient id="plateGrad" x1="0%" y1="0%" x2="100%" y2="100%">
      <stop offset="0%" style="stop-color:#f8f9fa;stop-opacity:1" />
      <stop offset="100%" style="stop-color:#e9ecef;stop-opacity:1" />
    </linearGradient>
  </defs>
  
  <!-- Background -->
  <rect width="400" height="300" fill="#fefefe"/>
  
  <!-- Main plate -->
  <ellipse cx="200" cy="180" rx="100" ry="60" fill="url(#plateGrad)" stroke="#dee2e6" stroke-width="2"/>
  <ellipse cx="200" cy="180" rx="90" ry="50" fill="none" stroke="#ced4da" stroke-width="1"/>
  
  <!-- Cannoli -->
  <g>
    <!-- Cannoli 1 -->
    <ellipse cx="160" cy="160" rx="25" ry="8" fill="url(#cannoliGrad)" stroke="#D2691E" stroke-width="1"/>
    <ellipse cx="160" cy="160" rx="20" ry="6" fill="url(#fillingGrad)"/>
    <!-- Chocolate chips -->
    <circle cx="155" cy="158" r="1.5" fill="url(#chocolateGrad)"/>
    <circle cx="165" cy="162" r="1.5" fill="url(#chocolateGrad)"/>
    <circle cx="158" cy="164" r="1" fill="url(#chocolateGrad)"/>
    
    <!-- Cannoli 2 -->
    <ellipse cx="200" cy="150" rx="28" ry="9" fill="url(#cannoliGrad)" stroke="#D2691E" stroke-width="1"/>
    <ellipse cx="200" cy="150" rx="23" ry="7" fill="url(#fillingGrad)"/>
    <!-- Pistachio pieces -->
    <ellipse cx="195" cy="148" rx="2" ry="1" fill="#228B22"/>
    <ellipse cx="200" cy="152" rx="1.5" ry="0.8" fill="#228B22"/>
    <ellipse cx="205" cy="149" rx="1.8" ry="1" fill="#228B22"/>
    
    <!-- Cannoli 3 -->
    <ellipse cx="240" cy="165" rx="26" ry="8" fill="url(#cannoliGrad)" stroke="#D2691E" stroke-width="1"/>
    <ellipse cx="240" cy="165" rx="21" ry="6" fill="url(#fillingGrad)"/>
    <!-- Candied fruit -->
    <ellipse cx="235" cy="163" rx="2" ry="1.5" fill="url(#fruitGrad)"/>
    <ellipse cx="242" cy="167" rx="1.5" ry="1" fill="#FFD700"/>
    <ellipse cx="238" cy="168" rx="1.8" ry="1.2" fill="#32CD32"/>
  </g>
  
  <!-- Pastries -->
  <g>
    <!-- Croissant -->
    <path d="M120 200 Q140 180 160 200 Q140 220 120 200 Z" fill="#F5DEB3" stroke="#D2691E" stroke-width="1"/>
    <path d="M125 195 Q140 185 155 195 Q140 205 125 195 Z" fill="#DEB887"/>
    
    <!-- Brioche -->
    <ellipse cx="180" cy="210" rx="15" ry="12" fill="#F5DEB3" stroke="#D2691E" stroke-width="1"/>
    <ellipse cx="180" cy="210" rx="12" ry="9" fill="#DEB887"/>
    
    <!-- Sweet roll -->
    <ellipse cx="220" cy="205" rx="12" ry="8" fill="#F5DEB3" stroke="#D2691E" stroke-width="1"/>
    <ellipse cx="220" cy="205" rx="9" ry="6" fill="#DEB887"/>
  </g>
  
  <!-- Small treats -->
  <g>
    <!-- Chocolate truffles -->
    <circle cx="140" cy="230" r="4" fill="url(#chocolateGrad)"/>
    <circle cx="150" cy="235" r="3.5" fill="url(#chocolateGrad)"/>
    <circle cx="160" cy="232" r="4" fill="url(#chocolateGrad)"/>
    
    <!-- Almond cookies -->
    <ellipse cx="200" cy="235" rx="6" ry="4" fill="#F5DEB3" stroke="#D2691E" stroke-width="0.5"/>
    <ellipse cx="210" cy="238" rx="5" ry="3.5" fill="#F5DEB3" stroke="#D2691E" stroke-width="0.5"/>
    
    <!-- Fruit tarts -->
    <ellipse cx="260" cy="230" rx="8" ry="6" fill="#F5DEB3" stroke="#D2691E" stroke-width="1"/>
    <ellipse cx="260" cy="230" rx="6" ry="4" fill="url(#fruitGrad)"/>
    <ellipse cx="270" cy="235" rx="7" ry="5" fill="#F5DEB3" stroke="#D2691E" stroke-width="1"/>
    <ellipse cx="270" cy="235" rx="5" ry="3" fill="#FFD700"/>
  </g>
  
  <!-- Decorative elements -->
  <g>
    <!-- Powdered sugar -->
    <circle cx="170" cy="140" r="1" fill="#ffffff" opacity="0.8"/>
    <circle cx="175" cy="145" r="0.8" fill="#ffffff" opacity="0.8"/>
    <circle cx="180" cy="138" r="1.2" fill="#ffffff" opacity="0.8"/>
    <circle cx="185" cy="142" r="0.9" fill="#ffffff" opacity="0.8"/>
    
    <!-- Mint leaves -->
    <ellipse cx="130" cy="170" rx="2" ry="6" fill="#228B22" transform="rotate(45 130 170)"/>
    <ellipse cx="270" cy="175" rx="1.5" ry="5" fill="#228B22" transform="rotate(-30 270 175)"/>
    
    <!-- Edible flowers -->
    <ellipse cx="110" cy="160" rx="3" ry="2" fill="#FF69B4" opacity="0.8"/>
    <ellipse cx="290" cy="165" rx="2.5" ry="1.8" fill="#FF69B4" opacity="0.8"/>
  </g>
  
  <!-- Background decorative circles -->
  <circle cx="80" cy="80" r="10" fill="#A4B5A0" opacity="0.3"/>
  <circle cx="320" cy="100" r="8" fill="#8FA688" opacity="0.3"/>
  <circle cx="350" cy="180" r="12" fill="#656839" opacity="0.2"/>
</svg>