<svg width="400" height="300" viewBox="0 0 400 300" xmlns="http://www.w3.org/2000/svg">
  <defs>
    <linearGradient id="plateGrad" x1="0%" y1="0%" x2="100%" y2="100%">
      <stop offset="0%" style="stop-color:#f8f9fa;stop-opacity:1" />
      <stop offset="100%" style="stop-color:#e9ecef;stop-opacity:1" />
    </linearGradient>
    <linearGradient id="pastaGrad" x1="0%" y1="0%" x2="100%" y2="100%">
      <stop offset="0%" style="stop-color:#D4AF37;stop-opacity:1" />
      <stop offset="100%" style="stop-color:#B8860B;stop-opacity:1" />
    </linearGradient>
    <linearGradient id="tomatoGrad" x1="0%" y1="0%" x2="100%" y2="100%">
      <stop offset="0%" style="stop-color:#dc3545;stop-opacity:1" />
      <stop offset="100%" style="stop-color:#c82333;stop-opacity:1" />
    </linearGradient>
    <linearGradient id="herbGrad" x1="0%" y1="0%" x2="100%" y2="100%">
      <stop offset="0%" style="stop-color:#28a745;stop-opacity:1" />
      <stop offset="100%" style="stop-color:#20c997;stop-opacity:1" />
    </linearGradient>
  </defs>
  
  <!-- Background -->
  <rect width="400" height="300" fill="#fefefe"/>
  
  <!-- Plate -->
  <ellipse cx="200" cy="150" rx="120" ry="80" fill="url(#plateGrad)" stroke="#dee2e6" stroke-width="2"/>
  <ellipse cx="200" cy="150" rx="110" ry="70" fill="none" stroke="#ced4da" stroke-width="1"/>
  
  <!-- Pasta -->
  <g fill="url(#pastaGrad)">
    <!-- Spiral pasta pieces -->
    <path d="M160 130 Q170 120 180 130 Q190 140 180 150 Q170 160 160 150 Q150 140 160 130 Z"/>
    <path d="M180 140 Q190 130 200 140 Q210 150 200 160 Q190 170 180 160 Q170 150 180 140 Z"/>
    <path d="M200 130 Q210 120 220 130 Q230 140 220 150 Q210 160 200 150 Q190 140 200 130 Z"/>
    <path d="M170 150 Q180 140 190 150 Q200 160 190 170 Q180 180 170 170 Q160 160 170 150 Z"/>
    <path d="M190 140 Q200 130 210 140 Q220 150 210 160 Q200 170 190 160 Q180 150 190 140 Z"/>
  </g>
  
  <!-- Tomato sauce -->
  <g fill="url(#tomatoGrad)">
    <ellipse cx="185" cy="145" rx="8" ry="6"/>
    <ellipse cx="195" cy="155" rx="6" ry="4"/>
    <ellipse cx="175" cy="155" rx="7" ry="5"/>
  </g>
  
  <!-- Fresh herbs -->
  <g fill="url(#herbGrad)">
    <ellipse cx="200" cy="135" rx="3" ry="8" transform="rotate(45 200 135)"/>
    <ellipse cx="195" cy="140" rx="2" ry="6" transform="rotate(-30 195 140)"/>
    <ellipse cx="205" cy="140" rx="2" ry="6" transform="rotate(60 205 140)"/>
  </g>
  
  <!-- Parmesan cheese -->
  <g fill="#f8f9fa">
    <circle cx="180" cy="125" r="2"/>
    <circle cx="190" cy="120" r="1.5"/>
    <circle cx="200" cy="125" r="2.5"/>
    <circle cx="210" cy="120" r="1.8"/>
    <circle cx="185" cy="115" r="1.2"/>
  </g>
  
  <!-- Decorative elements -->
  <circle cx="150" cy="100" r="15" fill="#A4B5A0" opacity="0.3"/>
  <circle cx="250" cy="200" r="12" fill="#8FA688" opacity="0.3"/>
  <circle cx="120" cy="220" r="8" fill="#656839" opacity="0.2"/>
</svg>